<?xml version="1.0" encoding="utf-8"?>
<!-- Generator: Adobe Illustrator 25.3.1, SVG Export Plug-In . SVG Version: 6.00 Build 0)  -->
<svg version="1.1" xmlns="http://www.w3.org/2000/svg" xmlns:xlink="http://www.w3.org/1999/xlink" x="0px" y="0px"
	 viewBox="0 0 24 24" style="enable-background:new 0 0 24 24;" xml:space="preserve">
<style type="text/css">
	.st0{display:none;}
	.st1{display:inline;fill:none;stroke:#404040;stroke-miterlimit:10;}
	.st2{display:inline;fill:#404040;}
	.st3{display:inline;}
	.st4{fill:none;stroke:#999999;stroke-miterlimit:10;}
	.st5{display:inline;fill:none;stroke:#F2F2F2;stroke-miterlimit:10;}
	.st6{fill:#F2F2F2;}
	.st7{display:inline;fill:none;stroke:#666666;stroke-miterlimit:10;}
	.st8{fill:none;stroke:#4D4D4D;stroke-miterlimit:10;}
	.st9{fill:none;stroke:#666666;stroke-miterlimit:10;}
</style>
<g id="Layer_1" class="st0">
	<polyline class="st1" points="4.5,8.8 4.5,0.5 23.5,0.5 23.5,23.5 4.5,23.5 4.5,15.2 	"/>
	<path class="st1" d="M11,17.3c-5.5,0-10-5-10-5.3s4.5-5.3,10-5.3s10,5,10,5.3S16.5,17.3,11,17.3z M11,7.3c-2.6,0-4.7,2.1-4.7,4.7
		s2.1,4.7,4.7,4.7s4.7-2.1,4.7-4.7S13.6,7.3,11,7.3z"/>
	<circle class="st2" cx="11" cy="12" r="2"/>
</g>
<g id="Layer_6" class="st0">
	<g class="st3">
		<path class="st4" d="M16.5,4.5c1.2,0.7,2.1,1.6,2.8,2.7l2.4-1.1l1.2,2.7l-2.4,1.1c0.3,1.3,0.4,2.6,0.1,3.9l2.5,1l-1.1,2.7l-2.5-1
			c-0.7,1.2-1.6,2.1-2.7,2.8l1.1,2.4l-2.7,1.2l-1.1-2.4c-1.3,0.3-2.6,0.4-3.9,0.1l-1,2.5l-2.7-1.1l1-2.5c-1.2-0.7-2.1-1.6-2.8-2.7
			l-2.4,1.1l-1.2-2.7l2.4-1.1c-0.3-1.3-0.4-2.6-0.1-3.9L1,9.3L2,6.6l2.5,1c0.7-1.2,1.6-2.1,2.7-2.8L6.1,2.3l2.7-1.2l1.1,2.4
			c1.3-0.3,2.6-0.4,3.9-0.1l1-2.5L17.4,2L16.5,4.5z"/>
		<circle class="st4" cx="12" cy="12" r="4"/>
	</g>
</g>
<g id="Layer_3" class="st0">
	<path class="st5" d="M17.4,23.3l4.9-4.9l-4.2-4.2l-4.2,2.8c-4.9-2.1-6.4-6.4-6.4-6.4l2.8-4.2L6,2.1L1.1,7C1.1,7,5.3,18.3,17.4,23.3
		z"/>
	<path class="st5" d="M12.7,5.6c1.4,0.1,2.7,0.6,3.8,1.7c1.2,1.2,1.8,2.8,1.7,4.4"/>
	<path class="st5" d="M12.7,3.5c1.9,0.1,3.8,0.9,5.2,2.3c1.6,1.6,2.4,3.8,2.3,5.9"/>
	<path class="st5" d="M12.7,1.5c2.4,0.1,4.8,1.1,6.7,2.9c2.1,2.1,3,4.8,2.9,7.5"/>
</g>
<g id="Layer_8" class="st0">
	<g class="st3">
		<path class="st6" d="M11.9,1c0.2,0,0.5,0,0.7,0c2.3,0.2,4.4,1.5,5.6,3.5c1,1.7,1.1,3.7,0.3,5.2l-6.6,12.2L5.3,9.8
			C4.5,8.2,4.6,6.3,5.6,4.5c1.2-2,3.2-3.3,5.6-3.5C11.4,1,11.6,1,11.9,1 M11.9,11.2c1.8,0,3.3-1.5,3.3-3.3c0-1.8-1.5-3.3-3.3-3.3
			S8.6,6.1,8.6,7.9C8.6,9.7,10.1,11.2,11.9,11.2 M11.9,0c-0.3,0-0.5,0-0.8,0C5.6,0.4,2.3,6.1,4.4,10.2L11.9,24l7.5-13.8
			c2.1-4.1-1.2-9.8-6.7-10.2C12.4,0,12.2,0,11.9,0L11.9,0z M11.9,10.2c-1.3,0-2.3-1-2.3-2.3s1-2.3,2.3-2.3s2.3,1,2.3,2.3
			S13.2,10.2,11.9,10.2L11.9,10.2z"/>
	</g>
</g>
<g id="Layer_5" class="st0">
	<path class="st7" d="M6.5,9.3c1.6-1.2,3.7-1.9,5.8-1.8c1.8,0.1,3.5,0.7,4.9,1.8"/>
	<path class="st7" d="M4.9,6.7c2.1-1.5,4.8-2.4,7.6-2.2c2.5,0.1,4.7,1,6.6,2.4"/>
	<path class="st7" d="M3.3,4.2C6,2.3,9.2,1.3,12.7,1.5c3.1,0.2,5.9,1.3,8.2,3"/>
</g>
<g id="Layer_4" class="st0">
	<path class="st7" d="M3.5,6.5"/>
	<path class="st1" d="M1.6,11.1h6.2v11.4C7.8,22.8,8,23,8.4,23h7.3c0.3,0,0.6-0.2,0.6-0.5V11.1h6.2c0.5,0,0.8-0.6,0.4-0.9L12,1
		L1.2,10.1C0.8,10.5,1.1,11.1,1.6,11.1z"/>
	<path class="st7" d="M12,2.8"/>
</g>
<g id="Layer_7">
	<rect x="0.8" y="0.5" class="st8" width="22.5" height="5"/>
	<rect x="9.5" y="18.5" class="st8" width="5" height="5"/>
	<rect x="5.5" y="9.5" class="st8" width="13" height="5"/>
</g>
<g id="Layer_9" class="st0">
	<g class="st3">
		<path class="st6" d="M23,1v22H1V1H23 M24,0H0v24h24V0L24,0z"/>
	</g>
	<g class="st3">
		<path class="st6" d="M13.7,11.2V20h-3.4v-8.8H13.7 M14.7,10.2H9.3V21h5.4V10.2L14.7,10.2z"/>
	</g>
	<g class="st3">
		<path class="st6" d="M13.7,4v3.4h-3.4V4H13.7 M14.7,3H9.3v5.4h5.4V3L14.7,3z"/>
	</g>
</g>
<g id="Layer_2" class="st0">
	<g class="st3">
		<path class="st9" d="M7.2,19.5L7.2,19.5l-1.7,1.6l-2.8-2.8l1.7-1.7c-0.5-0.8-1.1-2.8-1.1-2.8l-2.4,0l0-4l2.4,0
			c0,0,0.6-1.9,1.2-2.7L2.8,5.5l2.8-2.8l1.7,1.7c0.8-0.5,2.8-1.1,2.8-1.1l0-2.4l4,0l0,2.4c0,0,1.9,0.6,2.8,1.2l1.7-1.7l2.8,2.8
			l-1.7,1.7l1.1,2.8l2.4,0l0,4l-2.4,0c0,0-0.6,1.9-1.2,2.7l0,0l1.7,1.7l-2.8,2.8l-1.7-1.7c-0.8,0.5-2.8,1.1-2.8,1.1l0,2.4l-4,0
			l0-2.4C9.9,20.7,8,20,7.2,19.5z"/>
		<circle class="st9" cx="12" cy="12" r="3.5"/>
	</g>
</g>
</svg>
